<?xml version="1.0" encoding="iso-8859-1"?>
<!-- Generator: Adobe Illustrator 19.0.0, SVG Export Plug-In . SVG Version: 6.00 Build 0)  -->
<svg version="1.1" id="Capa_1" xmlns="http://www.w3.org/2000/svg" xmlns:xlink="http://www.w3.org/1999/xlink" x="0px" y="0px"
	 viewBox="0 0 512 512" style="enable-background:new 0 0 512 512;" xml:space="preserve">
<path style="fill:#B7623F;" d="M503.393,286.268c-2.865-22.288-11.304-43.258-23.649-61.404c-0.597-0.878-1.201-1.751-1.81-2.62
	c-11.419-16.282-25.039-30.984-40.433-43.575c-13.879-11.352-29.139-20.966-45.255-28.812c-14.54-7.079-29.761-12.727-45.335-17.065
	c-13.343-3.716-26.95-6.478-40.674-8.336c-18.98-2.57-38.028-3.144-57.129-2.95c-9.014,0.091-18.028,0.437-27.014,1.172
	c-6.079,0.498-12.143,1.179-18.183,2.034c-13.849,1.959-27.574,4.841-41.02,8.701c-15.631,4.488-30.892,10.308-45.443,17.581
	c-16.11,8.051-31.329,17.893-45.126,29.478c-15.323,12.867-28.815,27.851-40.068,44.393c-12.345,18.146-20.784,39.116-23.649,61.404
	c-5.444,42.359,4.547,100.282,116.125,104.526H256h131.268C498.846,386.549,508.838,328.626,503.393,286.268z"/>
<path style="fill:#A55235;" d="M450.503,379.732c24.109-21.527,26.152-51.366,22.992-75.963
	c-2.87-22.285-11.302-43.254-23.65-61.402c-77.618-114.094-223.744-102.852-223.744-102.852s-68.708-5.282-136.927,28.175
	c27.768-19.123,59.602-31.811,92.468-38.951c11.398-2.476,22.932-4.339,34.537-5.519c5.805-0.59,11.627-1.009,17.457-1.245
	c18.556-0.752,37.492-0.78,56.142,0.739c19.495,1.588,38.867,4.991,57.701,10.278c23.888,6.705,46.958,16.525,67.945,29.808
	c24.469,15.486,45.782,35.663,62.428,59.37c0.637,0.908,1.268,1.82,1.891,2.737c12.348,18.149,20.78,39.118,23.65,61.402
	C507.55,318.648,502.706,360.078,450.503,379.732z"/>
<g>
	<path style="fill:#E59770;" d="M156.337,135.328v104.098c0,14.77-11.97,26.74-26.74,26.74h-6.318c-14.77,0-26.74-11.97-26.74-26.74
		v-76.691C116.352,150.188,136.873,141.427,156.337,135.328z"/>
	<path style="fill:#E59770;" d="M285.899,122.332v117.094c0,14.768-11.972,26.74-26.74,26.74h-6.318
		c-14.768,0-26.74-11.972-26.74-26.74c0,0,0-117.091,0-117.094c0.161-1.309,26.036-0.735,28.878-0.747
		C265.289,121.542,275.609,121.627,285.899,122.332z"/>
	<path style="fill:#E59770;" d="M415.461,162.736v76.691c0,14.77-11.97,26.74-26.74,26.74h-6.319c-14.77,0-26.74-11.97-26.74-26.74
		V135.328C375.127,141.427,395.648,150.188,415.461,162.736z"/>
</g>
<g>
	<path style="fill:#DB7E56;" d="M285.899,122.147v20.979c-34.802-5.81-59.798-3.887-59.798-3.887v-17.092
		c8.628-0.629,17.332-0.856,25.994-0.56c5.592,0.191,11.169-0.149,16.761-0.108C274.514,121.521,280.259,121.72,285.899,122.147z"/>
	<path style="fill:#DB7E56;" d="M415.461,162.551v40.104c-18.876-17.012-39.427-29.52-59.798-38.709v-28.803
		c0.04,0.01,0.07,0.02,0.11,0.04c0.169,0.05,0.339,0.1,0.509,0.16c3.799,1.339,7.557,2.787,11.342,4.163
		c2.84,1.033,5.707,1.991,8.547,3.027c2.222,0.811,4.405,1.723,6.57,2.677c10.611,4.677,20.945,10.102,30.856,16.175
		C414.215,161.764,414.843,162.152,415.461,162.551z"/>
</g>
<path d="M218.626,130.24v109.001c0,18.866,15.349,34.214,34.215,34.214h6.318c18.866,0,34.215-15.349,34.215-34.214v-108.98
	c15.361,1.47,34.382,4.481,54.815,10.443v98.537c0,18.866,15.348,34.214,34.214,34.214h6.319c18.866,0,34.214-15.349,34.214-34.214
	v-62.579c14.009,10.161,27.439,22.455,39.578,37.344c2.607,3.198,7.316,3.679,10.516,1.07c3.199-2.608,3.679-7.316,1.07-10.516
	c-16.405-20.122-34.985-35.797-54.211-48.013c-0.142-0.105-0.278-0.216-0.428-0.311c-18.529-11.735-39.241-21.231-61.561-28.226
	c-0.309-0.096-0.622-0.168-0.936-0.223c-34.801-10.776-70.91-14.421-107.236-13.744c-10.273,0.192-20.544,0.677-30.78,1.581
	c-20.189,1.783-40.246,5.215-59.718,10.885c-26.055,7.587-51.088,18.854-73.54,34.156c-8.016,5.463-15.639,11.482-22.892,17.921
	c-13.918,12.357-26.255,26.452-36.723,41.839c-13.367,19.649-21.972,42.007-24.882,64.656c-3.974,30.916,1.99,56.016,17.723,74.602
	c19.927,23.539,55.432,36.44,105.531,38.345c0.094,0.004,0.19,0.006,0.284,0.006h18.649c4.129,0,7.475-3.346,7.475-7.475
	s-3.346-7.475-7.475-7.475h-18.505c-45.654-1.757-77.466-12.879-94.549-33.06c-13.092-15.464-17.771-36.084-14.307-63.038
	c2.613-20.329,10.365-40.438,22.416-58.153c14.816-21.779,32.224-38.843,50.629-52.204v62.611c0,18.866,15.349,34.214,34.214,34.214
	h6.319c18.866,0,34.214-15.349,34.214-34.214v-98.581C184.227,134.707,203.24,131.702,218.626,130.24z M148.862,239.242
	c0,10.622-8.643,19.265-19.265,19.265h-6.319c-10.622,0-19.265-8.643-19.265-19.265V166.71c13.786-8.381,28.82-15.481,44.848-21.186
	v93.718H148.862z M278.424,239.242c0,10.622-8.643,19.265-19.265,19.265h-6.318c-10.622,0-19.265-8.643-19.265-19.265v-110.03
	c8.496-0.375,14.891-0.27,18.312-0.153c2.729,0.095,5.495,0.095,8.224,0c3.421-0.116,9.815-0.221,18.312,0.153V239.242z
	 M407.986,239.242c0,10.622-8.643,19.265-19.265,19.265h-6.319c-10.622,0-19.265-8.643-19.265-19.265v-93.704
	c0.524,0.186,1.048,0.376,1.573,0.567c0.935,0.339,1.866,0.684,2.794,1.033c0.762,0.286,1.523,0.569,2.286,0.864
	c1.449,0.561,2.888,1.134,4.319,1.718c0.742,0.302,1.485,0.615,2.227,0.926c0.976,0.409,1.947,0.824,2.915,1.244
	c0.693,0.301,1.385,0.597,2.079,0.905c1.458,0.649,2.906,1.311,4.344,1.985c0.707,0.331,1.414,0.673,2.121,1.012
	c0.926,0.445,1.848,0.895,2.765,1.35c0.726,0.36,1.451,0.718,2.176,1.087c1.284,0.653,2.559,1.317,3.825,1.991
	c0.844,0.449,1.688,0.912,2.531,1.374c0.832,0.456,1.662,0.914,2.486,1.378c0.789,0.445,1.578,0.896,2.365,1.353
	c0.768,0.445,1.53,0.898,2.291,1.351c0.584,0.348,1.168,0.693,1.75,1.047v72.519H407.986z"/>
<path d="M510.807,285.082c-1.729-13.445-5.414-26.716-10.956-39.446c-1.649-3.785-6.054-5.518-9.838-3.87
	c-3.785,1.649-5.517,6.053-3.87,9.838c4.979,11.435,8.288,23.339,9.837,35.383c3.464,26.954-1.216,47.574-14.307,63.038
	c-17.083,20.181-48.894,31.303-94.548,33.06H190.222c-4.129,0-7.475,3.346-7.475,7.475s3.346,7.475,7.475,7.475h197.046
	c0.094,0,0.19-0.002,0.284-0.006c50.099-1.905,85.604-14.806,105.531-38.345C508.817,341.098,514.781,315.998,510.807,285.082z"/>
<g>
</g>
<g>
</g>
<g>
</g>
<g>
</g>
<g>
</g>
<g>
</g>
<g>
</g>
<g>
</g>
<g>
</g>
<g>
</g>
<g>
</g>
<g>
</g>
<g>
</g>
<g>
</g>
<g>
</g>
</svg>
