<?xml version="1.0" encoding="iso-8859-1"?>
<!-- Generator: Adobe Illustrator 19.0.0, SVG Export Plug-In . SVG Version: 6.00 Build 0)  -->
<svg version="1.1" id="Capa_1" xmlns="http://www.w3.org/2000/svg" xmlns:xlink="http://www.w3.org/1999/xlink" x="0px" y="0px"
	 viewBox="0 0 512 512" style="enable-background:new 0 0 512 512;" xml:space="preserve">
<polygon style="fill:#F9E8D4;" points="7.476,63.728 7.476,474.857 466.519,474.857 "/>
<polygon style="fill:#E8D0BA;" points="466.522,474.855 7.476,474.855 7.476,453.382 441.909,453.382 "/>
<polygon style="fill:#FF9017;" points="466.519,474.857 466.519,388.303 114.123,63.728 7.476,63.728 "/>
<polygon style="fill:#EF7D0A;" points="466.522,388.306 466.522,474.855 441.909,452.814 441.909,365.636 "/>
<path style="fill:#1BCF92;" d="M504.494,344.871c-0.927,27.963-23.457,50.871-51.399,52.267
	c-16.847,0.837-32.13-6.041-42.617-17.426L183.726,173.407c-2.662-2.423-5.433-4.725-8.164-7.068
	c-10.806-9.281-17.555-23.178-17.146-38.669c0.658-25.271,20.775-46.176,46.006-47.761c19.151-1.207,36.154,8.586,45.282,23.69
	c1.312,2.172,4.036,3.061,6.333,1.983c4.781-2.245,10.109-3.525,15.735-3.571c16.78-0.135,31.081,10.67,36.159,25.751
	c0.885,2.628,3.727,3.982,6.354,3.092c6.296-2.133,13.117-3.145,20.222-2.785c26.757,1.386,48.728,22.54,51.11,49.226
	c0.564,6.396,0.003,12.584-1.496,18.401c-0.562,2.182,0.467,4.444,2.432,5.546c9.51,5.332,16.492,14.655,18.647,25.721
	c0.498,2.555,2.932,4.299,5.508,3.929c2.138-0.307,4.32-0.476,6.54-0.492c27.165-0.229,49.376,21.612,49.595,48.778
	c0.026,2.637-0.165,5.224-0.546,7.748c-0.349,2.312,0.951,4.561,3.138,5.385C490.449,300.229,505.283,320.833,504.494,344.871z"/>
<path style="fill:#11BA7D;" d="M504.494,344.871c-0.498,15.003-7.217,28.551-17.655,38.101c2.273-5.662,3.609-11.783,3.818-18.163
	c0.798-24.037-14.034-44.64-35.055-52.56c-2.188-0.825-3.488-3.074-3.139-5.386c0.382-2.524,0.571-5.111,0.551-7.748
	c-0.229-27.165-22.44-49.007-49.605-48.778c-2.218,0.017-4.398,0.185-6.533,0.492c-2.576,0.369-5.01-1.373-5.508-3.927
	c-2.159-11.067-9.137-20.39-18.653-25.723c-1.966-1.102-2.995-3.365-2.432-5.547c1.501-5.816,2.067-12.004,1.495-18.399
	c-2.383-26.687-24.344-47.841-51.101-49.226c-7.112-0.36-13.929,0.652-20.227,2.785c-2.628,0.89-5.472-0.466-6.356-3.096
	c-5.073-15.08-19.381-25.883-36.16-25.748c-5.624,0.046-10.949,1.325-15.725,3.569c-2.297,1.079-5.021,0.19-6.334-1.981
	c-9.13-15.103-26.141-24.896-45.291-23.688c-11.095,0.698-21.204,5.134-29.099,12.022c6.629-17.695,23.227-30.724,42.936-31.96
	c19.151-1.207,36.154,8.586,45.282,23.69c1.312,2.171,4.036,3.061,6.332,1.982c4.781-2.246,10.109-3.525,15.735-3.571
	c16.78-0.135,31.081,10.67,36.159,25.751c0.885,2.628,3.727,3.982,6.354,3.092c6.296-2.133,13.117-3.145,20.222-2.785
	c26.757,1.386,48.728,22.54,51.11,49.226c0.564,6.396,0.003,12.585-1.496,18.401c-0.562,2.181,0.467,4.443,2.431,5.545
	c9.51,5.332,16.493,14.655,18.648,25.721c0.498,2.555,2.932,4.299,5.508,3.929c2.138-0.307,4.32-0.476,6.54-0.492
	c27.165-0.229,49.376,21.612,49.595,48.778c0.026,2.637-0.165,5.224-0.546,7.748c-0.349,2.312,0.951,4.561,3.139,5.386
	C490.449,300.229,505.283,320.833,504.494,344.871z"/>
<path style="fill:#1BCF92;" d="M334.079,200.296c-2.12-0.826-3.376-2.993-3.103-5.251c0.205-1.695,0.298-3.424,0.27-5.18
	c-0.339-21.022-17.656-37.789-38.678-37.45c-1.397,0.023-2.774,0.122-4.129,0.293c-2.499,0.315-4.831-1.327-5.41-3.779
	c-2.169-9.177-8.65-16.656-17.156-20.231c1.851-5.637,2.555-11.788,1.785-18.183c-2.376-19.728-18.638-35.256-38.455-36.714
	c-5.642-0.415-11.055,0.293-16.054,1.91c-2.534,0.82-5.203-0.573-6.163-3.057c-4.295-11.116-15.164-18.92-27.774-18.716
	c-4.041,0.065-7.876,0.948-11.353,2.487c-2.216,0.981-4.833,0.22-6.146-1.817c-7.068-10.962-19.598-18.039-33.679-17.431
	c-19.437,0.84-35.349,16.569-36.349,35.998c-0.644,12.516,4.735,23.752,13.463,31.125c2.128,1.798,4.283,3.564,6.358,5.423
	l176.726,158.288c8.097,8.654,19.809,13.863,32.678,13.243c21.782-1.049,39.318-18.98,39.867-40.781
	C361.239,222.157,349.996,206.501,334.079,200.296z"/>
<path style="fill:#11BA7D;" d="M360.783,240.477c-0.369,14.425-8.174,27.185-19.748,34.442c3.878-6.171,6.201-13.388,6.39-21.094
	c0.463-18.316-10.783-33.979-26.703-40.18c-2.117-0.825-3.367-2.993-3.094-5.249c0.205-1.694,0.298-3.423,0.27-5.183
	c-0.339-21.014-17.655-37.782-38.679-37.443c-1.401,0.023-2.781,0.121-4.138,0.292c-2.498,0.314-4.827-1.329-5.406-3.779
	c-1.865-7.892-6.917-14.531-13.703-18.505c-1.893-1.108-2.914-3.273-2.421-5.411c0.988-4.291,1.322-8.83,0.866-13.5
	c-2.004-20.645-19.13-36.885-39.845-37.792c-5.188-0.229-10.163,0.493-14.788,1.992c-2.528,0.819-5.191-0.585-6.149-3.063
	c-4.295-11.114-15.165-18.918-27.771-18.717c-4.04,0.064-7.874,0.949-11.349,2.489c-2.259,1.001-4.871,0.154-6.217-1.919
	c-7.262-11.185-20.224-18.296-34.691-17.268c-6.041,0.429-11.693,2.283-16.628,5.234c6.201-10.397,17.216-17.685,29.976-18.582
	c14.476-1.028,27.431,6.083,34.692,17.261c1.345,2.071,3.955,2.918,6.213,1.919c3.476-1.538,7.311-2.418,11.352-2.482
	c12.614-0.201,23.478,7.602,27.772,18.716c0.957,2.479,3.621,3.883,6.149,3.064c4.627-1.499,9.606-2.221,14.788-1.992
	c20.715,0.907,37.852,17.147,39.845,37.782c0.588,6.041-0.14,11.843-1.894,17.186c8.506,3.577,14.992,11.055,17.163,20.233
	c0.58,2.452,2.912,4.093,5.411,3.777c1.354-0.171,2.73-0.271,4.123-0.294c21.024-0.339,38.34,16.429,38.679,37.453
	c0.028,1.755-0.065,3.486-0.27,5.183c-0.272,2.256,0.977,4.424,3.095,5.249C349.99,206.497,361.236,222.153,360.783,240.477z"/>
<path style="fill:#FCC927;" d="M207.992,194.801l154.121,1.59c2.753,0.028,4.961,2.283,4.933,5.036l-1.414,137.026L207.992,194.801z
	"/>
<path style="fill:#EF2929;" d="M239.52,166.547c1.012,16.739-4.876,32.303-15.187,43.932l-90.892-80.598
	c10.311-11.628,25.067-19.329,41.807-20.326C208.734,107.537,237.51,133.054,239.52,166.547z"/>
<path style="fill:#D31A1A;" d="M224.329,210.481l-11.085-9.829c5.313-9.69,8.045-20.935,7.337-32.778
	c-1.834-30.485-25.829-54.35-55.377-56.872c3.25-0.758,6.609-1.236,10.049-1.446c33.485-2.024,62.255,23.497,64.269,56.992
	C240.528,183.286,234.647,198.847,224.329,210.481z"/>
<path style="fill:#EF2929;" d="M331.224,249.992c0.785,16.751-5.306,32.241-15.774,43.728l-89.791-81.823
	c10.468-11.487,25.327-18.987,42.072-19.764C301.248,190.577,329.676,216.482,331.224,249.992z"/>
<path style="fill:#D31A1A;" d="M315.988,293.721l-11.085-9.829c5.313-9.69,8.045-20.935,7.337-32.778
	c-1.834-30.485-25.829-54.35-55.377-56.872c3.25-0.758,6.609-1.236,10.049-1.446c33.485-2.024,62.255,23.497,64.269,56.992
	C332.188,266.526,326.306,282.087,315.988,293.721z"/>
<path style="fill:#EF2929;" d="M423.199,333.893c0.785,16.751-5.306,32.241-15.774,43.729l-89.799-81.83
	c10.468-11.487,25.327-18.987,42.079-19.757C393.215,274.472,421.643,300.376,423.199,333.893z"/>
<path style="fill:#D31A1A;" d="M407.963,377.622l-11.085-9.829c5.313-9.69,8.045-20.935,7.337-32.778
	c-1.834-30.485-25.829-54.35-55.377-56.872c3.25-0.758,6.609-1.236,10.049-1.446c33.485-2.024,62.255,23.497,64.269,56.992
	C424.162,350.427,418.28,365.988,407.963,377.622z"/>
<path d="M473.952,286.056c0.265-2.304,0.389-4.632,0.369-6.942c-0.126-15.136-6.139-29.317-16.932-39.93
	c-10.677-10.5-24.765-16.265-39.721-16.265c-0.161,0-0.323,0.001-0.485,0.002c-1.715,0.015-3.444,0.108-5.162,0.281
	c-2.867-11.455-10.099-21.319-20.207-27.538c1.397-6.225,1.814-12.616,1.244-19.028c-0.918-10.311-4.49-20.317-10.329-28.938
	c-2.316-3.418-6.964-4.313-10.384-1.997c-3.419,2.316-4.313,6.965-1.998,10.383c4.42,6.524,7.122,14.089,7.815,21.878
	c0.479,5.37,0.044,10.714-1.292,15.886c-1.398,5.421,1.08,11.142,6.024,13.915c7.81,4.378,13.264,11.899,14.968,20.631
	c1.263,6.486,7.371,10.828,13.906,9.899c1.832-0.263,3.696-0.404,5.538-0.419c11.16-0.084,21.653,4.159,29.597,11.972
	c7.945,7.813,12.371,18.251,12.463,29.394c0.019,2.19-0.137,4.4-0.464,6.569c-0.87,5.771,2.443,11.445,7.879,13.491
	c19.066,7.174,31.206,25.698,30.207,46.096c-1.177,24.043-20.208,43.076-44.268,44.272c-13.008,0.642-25.567-4.099-34.851-13.082
	c9.009-12.453,13.527-27.466,12.798-43.041c-0.846-18.204-8.729-34.988-22.197-47.261c-9.845-8.972-21.811-14.729-34.648-16.856
	l0.701-67.923c0.034-3.328-1.23-6.471-3.559-8.848c-2.329-2.378-5.445-3.707-8.773-3.741l-23.512-0.243
	c-0.46-11.757-5.333-22.701-13.815-30.913c-8.74-8.463-20.284-13.007-32.415-12.819c-0.904,0.015-1.813,0.057-2.72,0.126
	c-2.511-8.314-7.928-15.472-15.158-20.183c0.957-4.992,1.13-10.092,0.513-15.231c11.798,1.158,21.92,9.073,25.761,20.505
	c1.057,3.147,3.275,5.69,6.243,7.159c2.996,1.484,6.402,1.703,9.582,0.623c6.122-2.076,12.542-2.847,19.075-2.289
	c0.942,0.08,1.897,0.191,2.84,0.331c4.084,0.604,7.887-2.215,8.492-6.3c0.605-4.084-2.215-7.886-6.3-8.492
	c-1.248-0.185-2.514-0.332-3.762-0.439c-7.796-0.667-15.468,0.108-22.855,2.299c-6.837-17.19-23.411-28.515-42.066-28.515
	c-0.129,0-0.257,0-0.385,0.002c-0.323,0.003-0.643,0.02-0.965,0.03c-7.42-15.746-22.895-26.891-40.991-28.222
	c-5.665-0.417-11.252,0.116-16.648,1.582c-6.023-13.157-19.403-21.684-34.013-21.465c-4.243,0.069-8.369,0.849-12.297,2.324
	c-8.909-12.477-23.708-19.74-39.082-19.079c-17.328,0.749-32.369,11.5-39.369,26.543H7.477c-0.116,0-0.227,0.021-0.342,0.026
	c-3.131,0.144-6.115,2.561-6.89,5.615c-0.042,0.166-0.08,0.332-0.111,0.5c-0.034,0.189-0.058,0.379-0.078,0.571
	c-0.019,0.18-0.034,0.358-0.039,0.538C0.014,63.578,0,63.651,0,63.728V383.85c0,4.129,3.347,7.477,7.477,7.477
	s7.477-3.347,7.477-7.477V80.461l52.231,46.78l379.78,340.14H14.953v-36.926c0-4.129-3.347-7.477-7.477-7.477S0,426.325,0,430.454
	v44.403c0,4.129,3.347,7.477,7.477,7.477c0,0,459.043,0,459.044,0c0.338,0,0.677-0.032,1.014-0.078
	c0.089-0.012,0.176-0.026,0.265-0.042c3.076-0.535,5.198-2.557,5.951-5.522c0.042-0.166,0.08-0.332,0.111-0.499
	c0.035-0.19,0.059-0.381,0.079-0.574c0.018-0.179,0.034-0.357,0.039-0.536c0.002-0.076,0.017-0.15,0.017-0.227v-74.839
	c21.489-8.843,36.729-29.392,37.928-53.891C513.208,319.902,498.021,296.02,473.952,286.056z M398.399,297.335
	c10.516,9.583,16.672,22.689,17.331,36.905c0,0.001,0,0.002,0,0.003c0.54,11.516-2.592,22.64-8.9,32.045l-77.928-70.901
	c8.792-7.184,19.604-11.353,31.153-11.884C374.275,282.849,387.883,287.753,398.399,297.335z M359.544,203.841l-0.668,64.759
	c-8.224,0.436-16.147,2.319-23.493,5.499c2.551-7.779,3.705-16.031,3.311-24.452c-0.818-17.709-8.316-34.063-21.123-46.239
	L359.544,203.841z M314.765,282.526l-77.96-70.93c8.813-7.249,19.674-11.455,31.273-11.994c14.217-0.656,27.836,4.254,38.352,13.837
	c10.516,9.583,16.669,22.687,17.326,36.899c0,0.002,0,0.003,0,0.005C324.298,261.914,321.134,273.092,314.765,282.526z
	 M99.152,73.56c0.799-15.54,13.628-28.24,29.206-28.913c0.437-0.019,0.872-0.028,1.307-0.028c10.346,0,20.127,5.298,25.764,14.041
	c3.326,5.158,9.827,7.093,15.456,4.602c2.664-1.179,5.505-1.801,8.447-1.848c9.135-0.163,17.403,5.454,20.679,13.933
	c2.401,6.216,9.178,9.5,15.439,7.478c4.243-1.372,8.686-1.902,13.205-1.567c16.34,1.201,29.62,13.882,31.579,30.152
	c0.614,5.092,0.122,10.124-1.465,14.955c-1.215,3.701,0.615,7.715,4.207,9.225c6.409,2.694,11.185,8.323,12.777,15.06
	c1.466,6.196,7.333,10.269,13.622,9.475c1.097-0.138,2.212-0.218,3.314-0.235c8.154-0.139,15.903,2.926,21.774,8.61
	c5.517,5.342,8.768,12.403,9.249,20.016l-31.208-0.322c-7.97-2.706-16.453-3.938-25.117-3.531
	c-5.997,0.278-11.835,1.337-17.414,3.092l-5.136-0.053c1.841-6.951,2.595-14.221,2.149-21.604
	c-1.091-18.193-9.202-34.87-22.835-46.959c-13.635-12.09-31.157-18.144-49.345-17.049c-15.534,0.925-29.955,6.99-41.371,17.233
	l-16.937-15.17c-1.645-1.474-3.319-2.876-4.936-4.232l-1.586-1.333C102.598,92.36,98.655,83.237,99.152,73.56z M223.419,199.416
	l-79.037-69.826c8.749-7.469,19.633-11.876,31.316-12.573c14.203-0.847,27.885,3.872,38.529,13.311
	c10.646,9.439,16.977,22.462,17.83,36.667c0,0.001,0,0.002,0,0.003C232.759,178.605,229.718,189.87,223.419,199.416z
	 M459.042,458.123l-89.303-79.982L27.032,71.204h57.307c-0.046,0.528-0.093,1.055-0.12,1.588c-0.74,14.384,5.131,27.95,16.106,37.22
	l1.628,1.368c1.597,1.338,301.926,272.886,302.782,273.217l0.477,0.434c11.725,12.59,28.017,19.648,45.148,19.647
	c1.031,0,2.067-0.025,3.103-0.077c1.885-0.094,3.745-0.276,5.58-0.532v54.054H459.042z"/>
<g>
</g>
<g>
</g>
<g>
</g>
<g>
</g>
<g>
</g>
<g>
</g>
<g>
</g>
<g>
</g>
<g>
</g>
<g>
</g>
<g>
</g>
<g>
</g>
<g>
</g>
<g>
</g>
<g>
</g>
</svg>
